<svg width="25" height="24" viewBox="0 0 25 24" fill="none" xmlns="http://www.w3.org/2000/svg">
<path d="M4.4491 7.5V22.5C4.4491 23.325 5.1241 24 5.9491 24H19.4491C20.2741 24 20.9491 23.325 20.9491 22.5V7.5H4.4491ZM8.9491 21H7.4491V10.5H8.9491V21ZM11.9491 21H10.4491V10.5H11.9491V21ZM14.9491 21H13.4491V10.5H14.9491V21ZM17.9491 21H16.4491V10.5H17.9491V21ZM21.3241 3H16.4491V1.125C16.4479 0.826996 16.329 0.541536 16.1183 0.330814C15.9076 0.120092 15.6221 0.00118492 15.3241 0L10.0741 0C9.77609 0.00118492 9.49063 0.120092 9.27991 0.330814C9.06919 0.541536 8.95028 0.826996 8.9491 1.125V3H4.0741C3.77573 3 3.48958 3.11853 3.2786 3.3295C3.06762 3.54048 2.9491 3.82663 2.9491 4.125V6H22.4491V4.125C22.4491 3.82663 22.3306 3.54048 22.1196 3.3295C21.9086 3.11853 21.6225 3 21.3241 3ZM14.9491 3H10.4491V1.5195H14.9491V3Z" fill="#FF0000"/>
</svg>
