<svg width="24" height="24" viewBox="0 0 24 24" fill="none" xmlns="http://www.w3.org/2000/svg">
<path d="M10.008 10L7.43 7.953C7.13 7.701 6.98 7.576 7.015 7.446C7.049 7.316 7.242 7.282 7.627 7.216L8.8 7.01C9.247 6.932 9.303 6.817 9.104 6.41L7.86 3.87C7.614 3.366 7.49 3.114 7.603 3.008C7.716 2.901 7.958 3.04 8.443 3.318L10.534 4.52C10.894 4.727 10.93 4.717 11.116 4.343L11.96 2.646C12.18 2.204 12.29 1.983 12.436 2.001C12.583 2.019 12.636 2.261 12.743 2.743L13.423 5.823C13.513 6.227 13.617 6.283 13.997 6.119L16.266 5.141C16.661 4.971 16.858 4.886 16.958 4.984C17.058 5.082 16.978 5.283 16.818 5.684L15.006 10M12.494 10L11.994 8.5M2 13H6.745C7.513 13.501 8.157 13.57 8.975 13.986C9.99 14.58 10.473 15.5 10.468 17C10.468 18 10.598 19.02 10.282 19.57C9.92 20.2 7.697 19.998 7.497 19.998C7.497 21.1 6.691 22 5.497 22C4.401 22 3.506 21.1 3.506 19.998M6.745 12.999C5.721 12.331 5.16 11.087 4.532 10.079C3.66 8.579 2.466 8.099 2.012 8.004M3.506 19.998C3.50652 19.4696 3.7161 18.963 4.08895 18.5886C4.46181 18.2142 4.96765 18.0026 5.496 18C6.69 18 7.496 18.95 7.496 19.998M3.506 19.998H2M17.256 12.997H22M17.256 12.997C16.487 13.499 15.844 13.567 15.026 13.984C14.01 14.578 13.528 15.498 13.532 16.999C13.532 17.999 13.402 19.019 13.719 19.569C14.081 20.199 16.304 19.997 16.504 19.997M17.256 12.997C18.279 12.328 18.841 11.084 19.468 10.077C20.34 8.577 21.535 8.096 21.988 8M16.504 19.997C16.504 21.1 17.31 22 18.504 22C19.599 22 20.494 21.1 20.494 19.997M16.504 19.997C16.504 18.949 17.31 17.999 18.504 17.999C19.0324 18.0016 19.5382 18.2132 19.911 18.5876C20.2839 18.962 20.4935 19.4686 20.494 19.997M20.494 19.997H22" stroke="black" stroke-width="1.5" stroke-linecap="round" stroke-linejoin="round"/>
</svg>
