<svg width="24" height="24" viewBox="0 0 24 24" fill="none" xmlns="http://www.w3.org/2000/svg">
<path fill-rule="evenodd" clip-rule="evenodd" d="M18.0901 2.549C17.5381 2.239 16.9501 2.209 16.3291 2.286C15.7391 2.36 15.0201 2.546 14.1571 2.771L12.1381 3.295C11.2751 3.52 10.5571 3.706 10.0081 3.929C9.42907 4.163 8.92907 4.477 8.60507 5.022C8.27907 5.57 8.24707 6.156 8.32807 6.768C8.40507 7.345 8.59807 8.045 8.82807 8.879L9.37107 10.843C9.60107 11.678 9.79507 12.377 10.0261 12.913C10.2711 13.483 10.5981 13.968 11.1541 14.28C11.7061 14.589 12.2941 14.62 12.9161 14.542C13.5061 14.469 14.2251 14.282 15.0881 14.057L17.1071 13.533C17.9701 13.309 18.6881 13.122 19.2371 12.899C19.8161 12.665 20.3161 12.351 20.6401 11.806C20.9661 11.258 20.9981 10.672 20.9171 10.061C20.8401 9.484 20.6471 8.783 20.4171 7.949L19.8741 5.985C19.6441 5.151 19.4501 4.451 19.2191 3.915C18.9741 3.345 18.6451 2.86 18.0901 2.549ZM14.4861 4.235C15.4111 3.995 16.0341 3.835 16.5161 3.775C16.9771 3.717 17.1981 3.768 17.3591 3.858C17.5161 3.946 17.6671 4.099 17.8421 4.508C18.0271 4.938 18.1951 5.537 18.4431 6.435L18.9571 8.298C19.2061 9.196 19.3701 9.796 19.4311 10.258C19.4891 10.697 19.4371 10.896 19.3511 11.039C19.2641 11.186 19.1061 11.335 18.6761 11.509C18.2281 11.69 17.6061 11.854 16.6811 12.094L14.7611 12.593C13.8361 12.833 13.2131 12.993 12.7311 13.053C12.2691 13.112 12.0491 13.061 11.8881 12.971C11.7311 12.883 11.5801 12.729 11.4051 12.321C11.2201 11.891 11.0521 11.291 10.8041 10.393L10.2901 8.531C10.0411 7.631 9.87707 7.032 9.81607 6.571C9.75807 6.131 9.81007 5.933 9.89607 5.789C9.98307 5.642 10.1411 5.493 10.5711 5.319C11.0191 5.138 11.6411 4.975 12.5661 4.734L14.4861 4.235Z" fill="black"/>
<path fill-rule="evenodd" clip-rule="evenodd" d="M3.20007 4.725C3.01062 4.67856 2.81052 4.70775 2.64223 4.80639C2.47395 4.90503 2.35071 5.06535 2.29867 5.25334C2.24663 5.44134 2.26988 5.64221 2.36349 5.81335C2.4571 5.98448 2.6137 6.11242 2.80007 6.17L4.50307 6.643C4.92907 6.761 5.24607 7.083 5.35407 7.474L7.30607 14.537C7.23074 14.5517 7.15574 14.569 7.08107 14.589C5.10407 15.102 3.89607 17.091 4.43807 19.056C4.97807 21.011 7.03207 22.138 9.00107 21.626C10.7251 21.179 11.8641 19.61 11.7681 17.914L20.1881 15.726C20.2834 15.7012 20.3729 15.658 20.4515 15.5986C20.5302 15.5392 20.5963 15.465 20.6462 15.3801C20.6961 15.2952 20.7288 15.2012 20.7424 15.1037C20.7561 15.0061 20.7503 14.9068 20.7256 14.8115C20.7008 14.7162 20.6575 14.6266 20.5982 14.548C20.5388 14.4694 20.4646 14.4033 20.3796 14.3534C20.2947 14.3034 20.2008 14.2707 20.1032 14.2571C20.0057 14.2435 19.9064 14.2492 19.8111 14.274L11.3731 16.467C11.1206 15.9847 10.7653 15.5636 10.3323 15.2336C9.89927 14.9035 9.3991 14.6726 8.86707 14.557L6.80007 7.074C6.67293 6.62399 6.4315 6.21453 6.09926 5.88545C5.76702 5.55636 5.35528 5.31885 4.90407 5.196L3.20007 4.725ZM7.45907 16.04C8.67107 15.726 9.88707 16.429 10.1991 17.559C10.5091 18.679 9.82907 19.862 8.62507 20.175C7.41307 20.49 6.19707 19.786 5.88507 18.656C5.57507 17.536 6.25507 16.353 7.45907 16.04Z" fill="black"/>
</svg>
